<svg width="24" height="24" viewBox="0 0 24 24" fill="none" xmlns="http://www.w3.org/2000/svg">
<path d="M12 3.75C12.3315 3.75002 12.6598 3.81723 12.9639 3.94922V3.9502C13.343 4.11579 13.6535 4.43903 13.9775 4.89648C14.1382 5.12328 14.3087 5.39204 14.4971 5.70508L15.126 6.7793L19.9404 15.1191C20.3832 15.8865 20.7254 16.4785 20.9453 16.959C21.1684 17.4462 21.2866 17.8554 21.2393 18.2471C21.1999 18.5632 21.0944 18.8676 20.9287 19.1396C20.763 19.4117 20.5411 19.6452 20.2783 19.8252L20.2773 19.8262C19.9477 20.0535 19.5213 20.1544 18.9746 20.2021C18.4315 20.2498 17.7262 20.25 16.8125 20.25H7.18652C6.27347 20.25 5.56932 20.2497 5.02637 20.2021C4.47755 20.1533 4.05239 20.0544 3.72363 19.8271C3.18891 19.4572 2.83711 18.8851 2.75977 18.249H2.76074C2.7136 17.8556 2.83066 17.444 3.05371 16.96L3.05469 16.959C3.1646 16.7188 3.30443 16.4503 3.47266 16.1465L4.05859 15.1201L8.87402 6.78027C9.3405 5.97252 9.7001 5.35011 10.0215 4.89648C10.3471 4.43719 10.6569 4.11463 11.0352 3.9502C11.3395 3.81791 11.6681 3.75 12 3.75ZM12 15C11.5359 15 11.0909 15.1846 10.7627 15.5127C10.4345 15.8409 10.25 16.2859 10.25 16.75C10.25 17.2141 10.4345 17.6591 10.7627 17.9873C11.0909 18.3155 11.5359 18.5 12 18.5C12.4641 18.5 12.9091 18.3155 13.2373 17.9873C13.5654 17.6591 13.75 17.2141 13.75 16.75C13.75 16.2859 13.5655 15.8409 13.2373 15.5127C12.9091 15.1845 12.4641 15 12 15ZM12 7.5C10.9575 7.5 10.1617 8.41534 10.2578 9.44629L10.2598 9.45898L10.7529 13.6084C10.7818 13.915 10.9221 14.2007 11.1475 14.4111C11.3776 14.6259 11.6804 14.7468 11.9951 14.75H12.0049C12.3196 14.7468 12.6215 14.6258 12.8516 14.4111C13.077 14.2007 13.2162 13.915 13.2451 13.6084L13.2461 13.6094L13.7402 9.45898L13.7422 9.44531C13.8366 8.4145 13.0428 7.50007 12 7.5Z" fill="#FAE64D" stroke="#0B192C"/>
</svg>
